/* XPM */
static char *c15d268e7d4c4cdbd8a2cbbef4ec6342errIDbM643HR8FyU[] = {
/* columns rows colors chars-per-pixel */
"128 128 10 1 ",
"  c #020200",
". c #030200",
"X c #030301",
"o c gray1",
"O c #040301",
"+ c #040402",
"@ c #050402",
"# c #050503",
"$ c #060503",
"% c #040404",
/* pixels */
"%%%%%%%%oooooooooooooooooooooooooooooooooooooooooooooOOOOOOOOOOOoooooooooooooOOOOOOOOOOOOOOOOOOO%%OOOOOOOOOOOOOOOOOOOOOOOOOOOOOO",
"%%%%%%%%oooooooooooooooooooooooooooooooooooooooooooooOOOOOOOOOOOoooooooooooooOOOOOOOOOOOOOOOOOOO%%OOOOOOOOOOOOOOOOOOOOOOOOOOOOOO",
"%%%%%%%%oooooooooooooooooooooooooooooooooooooooooooooOOOOOOOOOOOoooooooooooooOOOOOOOOOOOOOOOOOOOOOOO%O%%OOOOOOOOOOOOOOOOOOOOOOOO",
"%%%%%%%%oooooooooooooooooooooooooooooooooooooooooooooOOOOOOOOOOOoooooooooooooOOOOOOOOOOOOOOOOOOOOOOO%%%%OOOOOOOOOOOOOOOOOOOOOOOO",
"%%%%%%%%oooooooooooooooooooooooooooooooooooooooooooooOOOOOOOOOOOoooooooooooooOOOOOOOOOOOOOOOOOOOOOOOOO%%OOOOOOOOOOOOOOOOOOOOOOOO",
"%%%%%%%%oooooooooooooooooooooooooooooooooooooooooooooOOOOOOOOOOOoooooooooooooOOOOOOOOOOOOOOOOOOO%%O%OO%%OOOOOOOOOOOOOOOOOOOOOOOO",
"%%%%%%%%oooooooooooooooooooooooooooooooooooooooooooooOOOOOOOOOOOoooooooooooooOOOOOOOOOOOOOOOOOOO%%%%OOOOOOOOOOOOOOOOOOOOOOOOOOOO",
"%%%%%%%%oooooooooooooooooooooooooooooooooooooooooooooOOOOOOOOOOOoooooooooooooOOOOOOOOOOOOOOOOOOO%%%%OOOOOOOOOOOOOOOOOOOOOOOOOOOO",
"ooooooooooooooooooooooooooooooooooooooooooooooooooooooooOOOOOOOOooooooooooooooooOOOOOOOOOOOOOOOOOOOOOOOOOOOOOOOOOOOOOOOOOOOOOOOO",
"ooooooooooooooooooooooooooooooooooooooooooooooooooooooooOOOOOOOOooooooooooooooooOOOOOOOOOOOOOOOOOOOOOOOOOOOOOOOOOOOOOOOOOOOOOOOO",
"ooooooooooooooooooooooooooooooooooooooooooooooooooooooooOOOOOOOOooooooooooooooooOOOOOOOOOOOOOOOOOOOOOOOOOOOOOOOOOOOOOOOOOOOOOOOO",
"ooooooooooooooooooooooooooooooooooooooooooooooooooooooooOOOOOOOOooooooooooooooooOOOOOOOOOOOOOOOOOOOOOOOOOOOOOOOOOOOOOOOOOOOOOOOO",
"ooooooooooooooooooooooooooooooooooooooooooooooooooooooooOOOOOOOOooooooooooooooooOOOOOOOOOOOOOOOOOOOOOOOOOOOOOOOOOOOOOOOOOOOOOOOO",
"ooooooooooooooooooooooooooooooooooooooooooooooooooooooooOOOOOOOOooooooooooooooooOOOOOOOOOOOOOOOOOOOOOOOOOOOOOOOOOOOOOOOOOOOOOOOO",
"ooooooooooooooooooooooooooooooooooooooooooooooooooooXoXXOOOOOOOOooooooooooooXoOOOOOOOOOOOOOOOOOOOOOOOOOOOOOOOOOOOOOOOOOOOOOOOOOO",
"ooooooooooooooooooooooooooooooooooooooooooooooooooooXXXXOOOOOOOOooooooooooooXXOOOOOOOOOOOOOOOOOOOOOOOOOOOOOOOOOOOOOOOOOOOOOOOOOO",
"ooooooooooooooooooooooooooooooooooooooooooooooooOOOOOOOOOOOOOOOOOOOOOOOOOOOOOOOOooooooooOOOOOOOOOOOOOOOOOOOOOOOOOOOOOOOOOOOOOOOO",
"ooooooooooooooooooooooooooooooooooooooooooooooooOOOOOOOOOOOOOOOOOOOOOOOOOOOOOOOOooooooooOOOOOOOOOOOOOOOOOOOOOOOOOOOOOOOOOOOOOOOO",
"ooooooooooooooooooooooooooooooooooooooooooooooooOOOOOOOOOOOOOOOOOOOOOOOOOOOOOOOOooooooooOOOOOOOOOOOOOOOOOOOOOOOOOOOOOOOOOOOOOOOO",
"ooooooooooooooooooooooooooooooooooooooooooooooooOOOOOOOOOOOOOOOOOOOOOOOOOOOOOOOOooooooooOOOOOOOOOOOOOOOOOOOOOOOOOOOOOOOOOOOOOOOO",
"oooooooooooooooooooooooooooooooXooooooooooooooooOOOOOOOOOOOOOOOOOOOOOOOOOOOOOOOOooooooooOOOOOOOOOOOOOOOOOOOOOOOOOOOOOOOOOOOOOOOO",
"oooooooooooooooooooooooooooooooXooooooooooooooooOOOOOOOOOOOOOOOOOOOOOOOOOOOOOOOOooooooooOOOOOOOOOOOOOOOOOOOOOOOOOOOOOOOOOOOOOOOO",
"ooooooooooooooooooooooooooooooXXooooooooooooooooOOOOOOOOOOOOOOOOOOOOOOOOOOOOOOOOooooXoXXOOOOOOOOOOOOOOOOOOOOOOOOOOOOOOOOOOOOOOOO",
"ooooooooooooooooooooooooooooooXXooooooooooooooooOOOOOOOOOOOOOOOOOOOOOOOOOOOOOOOOooooXXXXOOOOOOOOOOOOOOOOOOOOOOOOOOOOOOOOOOOOOOOO",
"ooooooooooooooooooooooooOOOOOOOOOOOOOOOOooooooooOOOOOOOOOOOOOOOOOOOOOOOOOOOOOOOOooooooooOOOOOOOOOOOOOOOOooooooooOOOOOOOOOOOOOOOO",
"ooooooooooooooooooooooooOOOOOOOOOOOOOOOOooooooooOOOOOOOOOOOOOOOOOOOOOOOOOOOOOOOOooooooooOOOOOOOOOOOOOOOOooooooooOOOOOOOOOOOOOOOO",
"ooooooooooooooooooooooooOOOOOOOOOOOOOOOOooooooooOOOOOOOOOOOOOOOOOOOOOOOOOOOOOOOOooooooooOOOOOOOOOOOOOOOOooooooooOOOOOOOOOOOOOOOO",
"ooooooooooooooooooooooooOOOOOOOOOOOOOOOOooooooooOOOOOOOOOOOOOOOOOOOOOOOOOOOOOOOOooooooooooooooooXXXXooooooooooooOOOOOOOOOOOOOOOO",
"ooooooooooooooooooooooooOOOOOOOOOOOOOOOOooooooXXOOOOOOOOOOOOOOOOOOOOOOOOOOOOOOOOooooooooooooooooXXooooooooooooooOOOOOOOOOOOOOOOO",
"ooooooooooooooooooooooooOOOOOOOOOOOOOOOOoooooooXOOOOOOOOOOOOOOOOOOOOOOOOOOOOOOOOooooooooooooooooooooooooooooooooOOOOOOOOOOOOOOOO",
"ooooooooooooooooooooooooOOOOOOOOOOOOOOOOooooooXXOOOOOOOOOOOOOOOOOOOOOOOOOOOOOOOOooooooooooooooooooooooooooooooooOOOOOOOOOOOOOOOO",
"ooooooooooooooooooooooooOOOOOOOOOOOOOOOOooooooXXOOOOOOOOOOOOOOOOOOOOOOOOOOOOOOOOooooooooooooooooooooooooooooooooOOOOOOOOOOOOOOOO",
"OOOOOOOOoooooooooooooOOOOOOOOOOOXXooooooOOOoooooooooooooOOOOOOOOOOOOOOOOOOOOOOOOOOOOOOOOooooooooooooooooooooooooOOOOOOOOOOOOOOOO",
"OOOOOOOOooooooooooooXOOOOOOOOOOOXXooooooOOOoooooooooooooOOOOOOOOOOOOOOOOOOOOOOOOOOOOOOOOooooooooooooooooooooooooOOOOOOOOOOOOOOOO",
"OOOOOOOOooooooooooooXOOOOOOOOOOOXoooooooOOOoooooooooooooOOOOOOOOOOOOOOOOOOOOOOOOOOOOOOOOooooooooooooooooooooooooOOOOOOOOOOOOOOOO",
"OOOOOOOOoooooooooooooOOOOOOOOOOOXoooooooOOOoooooooooooooOOOOOOOOOOOOOOOOOOOOOOOOOOOOOOOOooooooooooooooooooooooooOOOOOOOOOOOOOOOO",
"OOOOOOOOooooooooooooXOOOOOOOOOOOooooooooOOOoooooooooooooOOOOOOOOOOOOOOOOOOOOOOOOOOOOOOOOooooooooooooooooooooooooOOOOOOOOOOOOOOOO",
"OOOOOOOOooooooooooooXOOOOOOOOOOOooooooooOOOoooooooooooooOOOOOOOOOOOOOOOOOOOOOOOOOOOOOOOOooooooooooooooooooooooooOOOOOOOOOOOOOOOO",
"OOOOOOOOooooooooooooXOOOOOOOOOOOooooooooOOOoooooooooooooOOOOOOOOOOOOOOOOOOOOOOOOOOOOOOOOooooooooooooooooooooooooOOOOOOOOOOOOOOOO",
"OOOOOOOOooooooooooooXOOOOOOOOOOOooooooooOOOoooooooooooooOOOOOOOOOOOOOOOOOOOOOOOOOOOOOOOOooooooooooooooooooooooooOOOOOOOOOOOOOOOO",
"OOOOOOOOoooooooooooooooooooooooooooooooooooooooooooooooooooooOOOOOOOOOOOOOOOOOOOOOOOOOOOXXXXoooooooooooooooooOOOOOOOOOOOooOOOOOO",
"OOOOOOOOoooooooooooooooooooooooooooooooooooooooooooooooooooooOOOOOOOOOOOOOOOOOOOOOOOOOOOXXoXoooooooooooooooooOOOOOOOOOOOooOOOOOO",
"OOOOOOOOoooooooooooooooooooooooooooooooooooooooooooooooooooooOOOOOOOOOOOOOOOOOOOOOOOOOOOoooooooooooooooooooooOOOOOOOOOOOooOOOOOO",
"OOOOOOOOoooooooooooooooooooooooooooooooooooooooooooooooooooooOOOOOOOOOOOOOOOOOOOOOOOOOOOoooooooooooooooooooooOOOOOOOOOOOooOOOOOO",
"OOOOOOOOoooooooooooooooooooooooooooooooooooooooooooooooooooooOOOOOOOOOOOOOOOOOOOOOOOOOOOooooooooooooooooooooXOOOOOOOOOOOXXOOOOOO",
"OOOOOOOOoooooooooooooooooooooooooooooooooooooooooooooooooooooOOOOOOOOOOOOOOOOOOOOOOOOOOOooooooooooooooooooooXOOOOOOOOOOOXXOOOOOO",
"OOOOOOOOoooooooooooooooooooooooooooooooooooooooooooooooooooooOOOOOOOOOOOOOOOOOOOOOOOOOOOoooooooooooooooooooXXOOOOOOOOOOOXXOOOO%%",
"OOOOOOOOoooooooooooooooooooooooooooooooooooooooooooooooooooooOOOOOOOOOOOOOOOOOOOOOOOOOOOoooooooooooooooooooXXOOOOOOOOOOOXXOOOO%%",
"OOOOOOOOOOOOOOOOOOOOOOOOXXXXooooooooooooooooooooooooooooooooooooooooooooOOOOOOOOOOOOOOOOOOOOOOOOooooooooOOOOOOOOOOOOOOOOOOOOOOOO",
"OOOOOOOOOOOOOOOOOOOOOOOOXXoXooooooooooooooooooooooooooooooooooooooooooooOOOOOOOOOOOOOOOOOOOOOOOOooooooooOOOOOOOOOOOOOOOOOOOOOOOO",
"OOOOOOOOOOOOOOOOOOOOOOOOooooooooooooooooooooooooooooooooooooooooooooooooOOOOOOOOOOOOOOOOOOOOOOOOooooooooOOOOOOOOOOOOOOOOOOOOOOOO",
"OOOOOOOOOOOOOOOOOOOOOOOOooooooooooooooooooooooooooooooooooooooooooooooooOOOOOOOOOOOOOOOOOOOOOOOOooooooooOOOOOOOOOOOOOOOOOOOOOOOO",
"OOOOOOOOOOOOOOOOOOOOOOOOooooooooooooooooooooooooooooooooooooooooooooooooOOOOOOOOOOOOOOOOOOOOOOOOooooooooOOOOOOOOOOOOOOOOOOOOOOOO",
"OOOOOOOOOOOOOOOOOOOOOOOOooooooooooooooooooooooooooooooooooooooooooooooooOOOOOOOOOOOOOOOOOOOOOOOOooooooooOOOOOOOOOOOOOOOOOOOOOOOO",
"OOOOOOOOOOOOOOOOOOOOOOOOooooooooooooooooooooooooooooooooooooooooooooooooOOOOOOOOOOOOOOOOOOOOOOOOooooooooOOOOOOOOOOOOOOOOOOOOOOOO",
"OOOOOOOOOOOOOOOOOOOOOOOOooooooooooooooooooooooooooooooooooooooooooooooooOOOOOOOOOOOOOOOOOOOOOOOOooooooooOOOOOOOOOOOOOOOOOOOOOOOO",
"OOOOOOOOOOOOOOOOOOOOOOOOoooooooooooooOOOooooooooooooooooooooooooooooooooooooooooOOOOOOOOooOOOOOOOOOOOOOOOOOOOOOOOOOOOOOOOOOOOOOO",
"OOOOOOOOOOOOOOOOOOOOOOOOoooooooooooooOOOooooooooooooooooooooooooooooooooooooooooOOOOOOOOooOOOOOOOOOOOOOOOOOOOOOOOOOOOOOOOOOOOOOO",
"OOOOOOOOOOOOOOOOOOOOOOOOoooooooooooooOOOooooooooooooooooooooooooooooooooooooooooOOOOOOOOooOOOOOOOOOOOOOOOOOOOOOOOOOOOOOOOOOOOOOO",
"OOOOOOOOOOOOOOOOOOOOOOOOoooooooooooooOOOooooooooooooooooooooooooooooooooooooooooOOOOOOOOooOOOOOOOOOOOOOOOOOOOOOOOOOOOOOOOOOOOOOO",
"OOOOOOOOOOOOOOOOOOOOOOOOoooooooooooooOOOooooooooooooooooooooooooooooooooooooooooOOOOOOOOooOOOOOOOOOOOOOOOOOOOOOOOOOOOOOOOOOOOOOO",
"OOOOOOOOOOOOOOOOOOOOOOOOoooooooooooooOOOooooooooooooooooooooooooooooooooooooooooOOOOOOOOooOOOOOOOOOOOOOOOOOOOOOOOOOOOOOOOOOOOOOO",
"OOOOOOOOOOOOOOOOOOOOOOOOoooooooooooooOOOooooooooooooooooooooooooooooooooooooXoOOOOOOOOOOooOOOOOOOOOOOOOOOOOOOOOOOOOOOOOOOOOOOOOO",
"OOOOOOOOOOOOOOOOOOOOOOOOoooooooooooooOOOooooooooooooooooooooooooooooooooooooXXOOOOOOOOOOooOOOOOOOOOOOOOOOOOOOOOOOOOOOOOOOOOOOOOO",
"%%%%%%%%%%%%%%%%OOOOOOOOOOOOOOOOooooooooooooooooooooooooooooooooooooooooooooooooooooooooOOOOOOOOOOOOOOOOOOOOOOOOOOOOOOOOOOOOOOOO",
"%%%%%%%%%%%%%%%%OOOOOOOOOOOOOOOOooooooooooooooooooooooooooooooooooooooooooooooooooooooooOOOOOOOOOOOOOOOOOOOOOOOOOOOOOOOOOOOOOOOO",
"%%%%%%%%%%%%%%%%OOOOOOOOOOOOOOOOooooooooooooooooooooooooooooooooooooooooooooooooooooooooOOOOOOOOOOOOOOOOOOOOOOOOOOOOOOOOOOOOOOOO",
"%%%%%%%%%%%%%%%%OOOOOOOOOOOOOOOOooooooooooooooooooooooooooooooooooooooooooooooooooooooooOOOOOOOOOOOOOOOOOOOOOOOOOOOOOOOOOOOOOOOO",
"%%%%%%%%%%%%%%%%OOOOOOOOOOOOOOOOooooooooooooooooooooooooooooooooooooooooooooooooooooooooOOOOOOOOOOOOOOOOOOOOOOOOOOOOOOOOOOOOOOOO",
"%%%%%%%%%%%%%%%%OOOOOOOOOOOOOOOOooooooooooooooooooooooooooooooooooooooooooooooooooooooooOOOOOOOOOOOOOOOOOOOOOOOOOOOOOOOOOOOOOOOO",
"%%%%%%%%%%%%%%%%OOOOOOOOOOOOOOOOooooooooooooooooooooooooooooooooooooooooooooooooooooooooOOOOOOOOOOOOOOOOOOOOOOOOOOOOOOOOOOOOOOOO",
"%%%%%%%%%%%%%%%%OOOOOOOOOOOOOOOOooooooooooooooooooooooooooooooooooooooooooooooooooooooooOOOOOOOOOOOOOOOOOOOOOOOOOOOOOOOOOOOOOOOO",
"%%%%%%%%%%%%%%%%OOOOOOOOOOOOOOOOooooooooooooooooooooooooooooooooooooooooooooooooooooooooXXooooooOOOOOOOOOOOOOOOOOOOOOOOOOOOOOOOO",
"%%%%%%%%%%%%%%%%OOOOOOOOOOOOOOOOooooooooooooooooooooooooooooooooooooooooooooooooooooooooXXooooooOOOOOOOOOOOOOOOOOOOOOOOOOOOOOOOO",
"%%%%%%%%%%%%%%%%OOOOOOOOOOOOOOOOooooooooooooooooooooooooooooooooooooooooooooooooooooooooXoooooooOOOOOOOOOOOOOOOOOOOOOOOOOOOOOOOO",
"%%%%%%%%%%%%%%%%OOOOOOOOOOOOOOOOooooooooooooooooooooooooooooooooooooooooooooooooooooooooXoooooooOOOOOOOOOOOOOOOOOOOOOOOOOOOOOOOO",
"%%%%%%%%%%%%%%%%OOOOOOOOOOOOOOOOooooooooooooooooooooooooooooooooooooooooooooooooooooooooooooooooOOOOOOOOOOOOOOOOOOOOOOOOOOOOOOOO",
"%%%%%%%%%%%%%%%%OOOOOOOOOOOOOOOOooooooooooooooooooooooooooooooooooooooooooooooooooooooooooooooooOOOOOOOOOOOOOOOOOOOOOOOOOOOOOOOO",
"%%%%%%%%%%%%%%%%OOOOOOOOOOOOOOOOooooooooooooooooooooooooooooooooooooooooooooooooooooooooooooooooOOOOOOOOOOOOOOOOOOOOOOOOOOOOOOOO",
"%%%%%%%%%%%%%%%%OOOOOOOOOOOOOOOOooooooooooooooooooooooooooooooooooooooooooooooooooooooooooooooooOOOOOOOOOOOOOOOOOOOOOOOOOOOOOOOO",
"%%%%%%%%%%%%%%%%OOOOOOOOOOOOOOOOooooooooooooooooooooooooooooooooooooooooooooooooooooooooooooooooOOOOOOOOOOOOOOOOOOOOOOOOOOOOOOOO",
"%%%%%%%%%%%%%%%%OOOOOOOOOOOOOOOOooooooooooooooooooooooooooooooooooooooooooooooooooooooooooooooooOOOOOOOOOOOOOOOOOOOOOOOOOOOOOOOO",
"%%%%%%%%%%%%%%%%OOOOOOOOOOOOOOOOooooooooooooooooooooooooooooooooooooooooooooooooooooooooooooooooOOOOOOOOOOOOOOOOOOOOOOOOOOOOOOOO",
"%%%%%%%%%%%%%%%%OOOOOOOOOOOOOOOOooooooooooooooooooooooooooooooooooooooooooooooooooooooooooooooooOOOOOOOOOOOOOOOOOOOOOOOOOOOOOOOO",
"%%%%%%%%%%%%%%%%OOOOOOOOOOOOOOOOoooooooXooooooooooooooooooooooooooooooooooooooooooooooooooooooooOOOOOOOOOOOOOOOOOOOOOOOOOOOOOOOO",
"%%%%%%%%%%%%%%%%OOOOOOOOOOOOOOOOoooooooXooooooooooooooooooooooooooooooooooooooooooooooooooooooooOOOOOOOOOOOOOOOOOOOOOOOOOOOOOOOO",
"%%%%%%%%%%%%%%%%OOOOOOOOOOOOOOOOooooooXXooooooooooooooooooooooooooooooooooooooooooooooooooooooooOOOOOOOOOOOOOOOOOOOOOOOOOOOOOOOO",
"%%%%%%%%%%%%%%%%OOOOOOOOOOOOOOOOooooooXXooooooooooooooooooooooooooooooooooooooooooooooooooooooooOOOOOOOOOOOOOOOOOOOOOOOOOOOOOOOO",
"%%%%%%%%%%%%%%%%OOOOOOOOOOOOOOOOOOOOOOOOooooooooooooooooooooooooooooooooooooooooooooooooooooooooOOOOOOOOOOOOOOOOOOOOOOOOOOOOOOOO",
"%%%%%%%%%%%%%%%%OOOOOOOOOOOOOOOOOOOOOOOOooooooooooooooooooooooooooooooooooooooooooooooooooooooooOOOOOOOOOOOOOOOOOOOOOOOOOOOOOOOO",
"%%%%%%%%%%%%%%%%OOOOOOOOOOOOOOOOOOOOOOOOooooooooooooooooooooooooooooooooooooooooooooooooooooooooOOOOOOOOOOOOOOOOOOOOOOOOOOOOOOOO",
"%%%%%%%%%%%%%%%%OOOOOOOOOOOOOOOOOOOOOOOOooooooooooooooooooooooooooooooooooooooooooooooooooooooooOOOOOOOOOOOOOOOOOOOOOOOOOOOOOOOO",
"%%%%%%%%%%%%%%%%OOOOOOOOOOOOOOOOOOOOOOOOooooooooooooooooooooooooooooooooooooooooooooooooooooooooOOOOOOOOOOOOOOOOOOOOOOOOOOOOOOOO",
"%%%%%%%%%%%%%%%%OOOOOOOOOOOOOOOOOOOOOOOOooooooooooooooooooooooooooooooooooooooooooooooooooooooooOOOOOOOOOOOOOOOOOOOOOOOOOOOOOOOO",
"%%%%%%%%%%%%%%%%OOOOOOOOOOOOOOOOOOOOOOOOooooooooooooooooooooooooooooooooooooooooooooooooooooooooOOOOOOOOOOOOOOOOOOOOOOOOOOOOOOOO",
"%%%%%%%%%%%%%%%%OOOOOOOOOOOOOOOOOOOOOOOOooooooooooooooooooooooooooooooooooooooooooooooooooooooooOOOOOOOOOOOOOOOOOOOOOOOOOOOOOOOO",
"OOOOOOOOOOOOOOOOOOOOOOOOOOOOOOOOOOOOOOOOOOOXXoooooooooooooooooooooooooooooooooooooooooooooooooooooooooooOOOOOOOOOOOOOOOOOOOOOOOO",
"OOOOOOOOOOOOOOOOOOOOOOOOOOOOOOOOOOOOOOOOOOOXXoooooooooooooooooooooooooooooooooooooooooooooooooooooooooooOOOOOOOOOOOOOOOOOOOOOOOO",
"OOOOOOOOOOOOOOOOOOOOOOOOOOOOOOOOOOOOOOOOOOOXooooooooooooooooooooooooooooooooooooooooooooooooooooooooooooOOOOOOOOOOOOOOOOOOOOOOOO",
"OOOOOOOOOOOOOOOOOOOOOOOOOOOOOOOOOOOOOOOOOOOXooooooooooooooooooooooooooooooooooooooooooooooooooooooooooooOOOOOOOOOOOOOOOOOOOOOOOO",
"OOOOOOOOOOOOOOOOOOOOOOOOOOOOOOOOOOOOOOOOOOOoooooooooooooooooooooooooooooooooooooooooooooooooooooooooooooOOOOOOOOOOOOOOOOOOOOOOOO",
"OOOOOOOOOOOOOOOOOOOOOOOOOOOOOOOOOOOOOOOOOOOoooooooooooooooooooooooooooooooooooooooooooooooooooooooooooooOOOOOOOOOOOOOOOOOOOOOOOO",
"OOOOOOOOOOOOOOOOOOOOOOOOOOOOOOOOOOOOOOOOOOOoooooooooooooooooooooooooooooooooooooooooooooooooooooooooooooOOOOOOOOOOOOOOOOOOOOOOOO",
"OOOOOOOOOOOOOOOOOOOOOOOOOOOOOOOOOOOOOOOOOOOoooooooooooooooooooooooooooooooooooooooooooooooooooooooooooooOOOOOOOOOOOOOOOOOOOOOOOO",
"XXOOO%%%OOOOOOOOOOOOOOOOOOOOOOOOOOOOOOOOooooooooooooooooooooooooooooooooooooooooooooooooooooooooooooooooOOOOOOOOOOOOOOOOOOOOOOOO",
"XXOOO%%%OOOOOOOOOOOOOOOOOOOOOOOOOOOOOOOOooooooooooooooooooooooooooooooooooooooooooooooooooooooooooooooooOOOOOOOOOOOOOOOOOOOOOOOO",
"XXOOO%O%OOOOOOOOOOOOOOOOOOOOOOOOOOOOOOOOooooooooooooooooooooooooooooooooooooooooooooooooooooooooooooooooOOOOOOOOOOOOOOOOOOOOOOOO",
"XXOOO%OOOOOOOOOOOOOOOOOOOOOOOOOOOOOOOOOOooooooooooooooooooooooooooooooooooooooooooooooooooooooooooooooooOOOOOOOOOOOOOOOOOOOOOOOO",
"XoOOOOOOOOOOOOOOOOOOOOOOOOOOOOOOOOOOOOOOooooooooooooooooooooooooooooooooooooooooooooooooooooooooooooooooOOOOOOOOOOOOOOOOOOOOOOOO",
"ooOOOOOOOOOOOOOOOOOOOOOOOOOOOOOOOOOOOOOOooooooooooooooooooooooooooooooooooooooooooooooooooooooooooooooooOOOOOOOOOOOOOOOOOOOOOOOO",
"ooOOOO%%OOOOOOOOOOOOOOOOOOOOOOOOOOOOOOOOooooooooooooooooooooooooooooooooooooooooooooooooooooXoXXooooXoXXOOOOOOOOOOOOOOOOOOOOOOOO",
"ooOOOO%%OOOOOOOOOOOOOOOOOOOOOOOOOOOOOOOOooooooooooooooooooooooooooooooooooooooooooooooooooooXXXXooooXXXXOOOOOOOOOOOOOOOOOOOOOOOO",
"%%%%%%%%%%%%%%%%OOOOOOOOOOOOOOOOooooooooooooooooooooooooooooooooooooooooooooooooooooooooOOOOOOOOooooooooOOOOOOOOOOOOOOOOOOOOOO%%",
"%%%%%%%%%%%%%%%%OOOOOOOOOOOOOOOOooooooooooooooooooooooooooooooooooooooooooooooooooooooooOOOOOOOOooooooooOOOOOOOOOOOOOOOOOOOOOO%%",
"%%%%%%%%%%%%%%%%OOOOOOOOOOOOOOOOooooooooooooooooooooooooooooooooooooooooooooooooooooooooOOOOOOOOooooooooOOOOOOOOOOOOOOOOOOOOOOOO",
"%%%%%%%%%%%%%%%%OOOOOOOOOOOOOOOOooooooooooooooooooooooooooooooooooooooooooooooooooooooooOOOOOOOOooooooooOOOOOOOOOOOOOOOOOOOOOOOO",
"%%%%%%%%%%%%%%%%OOOOOOOOOOOOOOOOooooooooooooooooooooooooooooooooooooooooooooooooooooooooOOOOOOOOooooooooOOOOOOOOOOOOOOOOOOOOO%%O",
"%%%%%%%%%%%%%%%%OOOOOOOOOOOOOOOOooooooooooooooooooooooooooooooooooooooooooooooooooooooooOOOOOOOOooooooooOOOOOOOOOOOOOOOOOOOOO%%O",
"%%%%%%%%%%%%%%%%OOOOOOOOOOOOOOOOooooooooooooooooooooooooooooooooooooooooooooooooooooooooOOOOOOOOooooooooOOOOOOOOOOOOOOOOOOOOO%OO",
"%%%%%%%%%%%%%%%%OOOOOOOOOOOOOOOOooooooooooooooooooooooooooooooooooooooooooooooooooooooooOOOOOOOOooooooooOOOOOOOOOOOOOOOOOOOOO%OO",
"%%%%%%%%%%%%%%%%OOOOOOOOOOOOOOOOooooooooooooooooooooooooooooooooooooooooooooooooooOOO%%OOOOOOOOOOOOOOOOOOOOOOOOOOOOOOOOO%%OOOOOO",
"%%%%%%%%%%%%%%%%OOOOOOOOOOOOOOOOooooooooooooooooooooooooooooooooooooooooooooooooooOOO%%%OOOOOOOOOOOOOOOOOOOOOOOOOOOOOOOO%%OOOOOO",
"%%%%%%%%%%%%%%%%OOOOOOOOOOOOOOOOooooooooooooooooooooooooooooooooooooooooooooooooooOOO%O%OOOOOOOOOOOOOOOOOOOOOOOOOOOOOOOOOOOO%O%%",
"%%%%%%%%%%%%%%%%OOOOOOOOOOOOOOOOooooooooooooooooooooooooooooooooooooooooooooooooooOOO%OOOOOOOOOOOOOOOOOOOOOOOOOOOOOOOOOOOOOO%%%%",
"%%%%%%%%%%%%%%%%OOOOOOOOOOOOOOOOooooooooooooooooooooooooooooooooooooooooooooooooooOOOOOOOOOOOOOOOOOOOOOOOOOOOOOOOOOOOOOOOOOOOO%%",
"%%%%%%%%%%%%%%%%OOOOOOOOOOOOOOOOooooooooooooooooooooooooooooooooooooooooooooooooooOOOOOOOOOOOOOOOOOOOOOOOOOOOOOOOOOOOOOO%%O%OO%%",
"%%%%%%%%%%%%%%%%OOOOOOOOOOOOOOOOooooooooooooooooooooooooooooooooooooooooooooooooooOOOOOOOOOOOOOOOOOOOOOOOOOOOOOOOOOOOOOO%%%%OOOO",
"%%%%%%%%%%%%%%%%OOOOOOOOOOOOOOOOooooooooooooooooooooooooooooooooooooooooooooooooooOOOOOOOOOOOOOOOOOOOOOOOOOOOOOOOOOOOOOO%%%%OOOO"
};
