/* XPM */
static char *_8dab367a20a495b8b2419b048536eedmGPEiPILsQPN6ZPi[] = {
/* columns rows colors chars-per-pixel */
"128 128 54 1 ",
"  c None",
". c #FDCD07",
"X c #FFD83A",
"o c #FFD735",
"O c #FFD11A",
"+ c #FFDD4D",
"@ c #BA9405",
"# c #FEE164",
"$ c #FECE09",
"% c #FFD320",
"& c #F7C502",
"* c #DCB005",
"= c #FFDE56",
"- c #FFDA40",
"; c #E1B404",
": c #FFE05D",
"> c #FFD014",
", c #FFDB47",
"< c #EEBD04",
"1 c #FFD529",
"2 c #C79F03",
"3 c #F3C203",
"4 c #FFD62F",
"5 c #FFCF0D",
"6 c #FFD425",
"7 c #D3A904",
"8 c #D7AC03",
"9 c #FAC906",
"0 c #BD9704",
"q c #CCA204",
"w c #EABB05",
"e c #C29B03",
"r c #E6B805",
"t c #D0A603",
"y c #292413",
"u c #17150C",
"i c #080806",
"p c #5F5121",
"a c #A98B18",
"s c #4F451D",
"d c #3B3419",
"f c #6F6028",
"g c #947C1F",
"h c #B7971B",
"j c #847024",
"k c #E8C634",
"l c #DDB319",
"z c #E3C754",
"x c #C5AE4D",
"c c #CCA925",
"v c #9F8D41",
"b c #EAC11D",
"n c #EED460",
"m c #B89E3A",
/* pixels */
"                                                                                                                                ",
"                                                                                                                                ",
"                                                                                                                                ",
"                                                                                                                                ",
"                                                                                                                                ",
"                                                                                                                                ",
"                                                                                                                                ",
"                                                                                                                                ",
"                                                                                                                                ",
"                                                                                                                                ",
"                                                                                                                                ",
"                                                                                                                                ",
"                                                                                                                                ",
"                                                                                                                                ",
"                                                                                                                                ",
"                                                                                                                                ",
"                                                                                                                                ",
"                                                                                                                                ",
"                                                                                                                                ",
"                                                                                                                                ",
"                                                                                                                                ",
"                                                                                                                                ",
"                                                                                                                                ",
"                                                                                                                                ",
"                                                                                                                                ",
"                                                                                                                                ",
"                                                                                                                                ",
"                                                                                                                                ",
"                                                                                                                                ",
"                                                                                                                                ",
"                                                                                                                                ",
"                                                                                                                                ",
"                                                                                                                                ",
"                                                                                                                                ",
"                                                          iuyyddyyui                                                            ",
"                                                      udfvmxkkkkkkcmgfdu                                                        ",
"                                                   idjxz,--XXo411116%Obcjdi                                                     ",
"                                                 isvz=,,,--XXoo411%%OO%>Obasi                                                   ",
"                                                dvn=+++,,,--XXoo416%%%O>>5>bhd                                                  ",
"                                              ujz:===+++,,,--Xoo411%%%OO>5$5$bju                                                ",
"                                             dx#=::====+++,,-XXoo416%%OO>5$$.59hd                                               ",
"                                            pz#:::::::==+++,--XXo4416%%O>5$$.599cp                                              ",
"                                           fn#######:::==++,,-XXoo416%%OO>5$..9&3lpi                                            ",
"                                         ifn#########:::==++,,-XXo416%%OOO5$..9&3<lp                                            ",
"                                         pn#:#########:::=+++,--Xoo16%%OOO5$..9&3b<lp                                           ",
"                                        sz#############::==++,--Xoo46%%OOO5$...&3<wwcd                                          ",
"                                       yx##############:::=++,,-XXo416%%OO>$$..&33<wrhy                                         ",
"                                       v:###############::=++,,-XXo416%%OO>$$$.9&3<w;lji                                        ",
"                                      sn::##############::=++,,-XXo416%%OO>$$..&&3<w;l7s                                        ",
"                                     ux:::##############::=++,,-XXo416%%OO>$$..9&3<w;**au                                       ",
"                                     f:=:###############:==++,,-Xoo416%OOO>$$..9&3<w;*87p                                       ",
"                                    ux==::##############:==++,,-Xoo416%OOO>$$..&&3<w;*88au                                      ",
"                                    p++==:#############::==+,,-XXoo416%OOO>$$.9&33ww;*87qs                                      ",
"                                   iv++==:#############:==++,,-XXoo11%%OO>>$$.9&3<<r;*877gi                                     ",
"                                   yz++===:###########::==++,,-XXo416%%OO55$$.9&3<wr;*87thy                                     ",
"                                   p,+++==::##########:==+++,--Xoo416%%O>5$$..9&3<wr;*87q2s                                     ",
"                                   v,,+++===::######::==+++,--XXoo41%%%O>5$$..9&3<wr;*7tqqji                                    ",
"                                  ix--,+++===:::::::===++++,--XXo4416%OO>5$$.9&&<<r;**7tq2au                                    ",
"                                  yz--,,++++==========++++,,-XXoo4166%O>55$$.9&3<wr;*87tq2hy                                    ",
"                                 idkoX-,,,++++=+===+++++,,,-XXoo4166%%O>5$$..9&3<wr;*87qq2hd                                    ",
"                                  pXoXX--,,+,++++++++,,,,--XXoo4416%%OO>5$$.9&33<w;;*8tq22es                                    ",
"                                  fXoXXX--,,,,++,++,,,,---XXoo44116%%>>5$$$.9&3<wr;*87tq2eep                                    ",
"                                  foooXXX---,,,,,,,,,----XXoo44116%%O>55$$.99&3<wr;*87tq2e0p                                    ",
"                                 if44oooXXXX---,-,--X--XXXoo44116%%OO>5$$$.9&3<wr;**8tq22e0p                                    ",
"                                  f4144ooXXXXX-X-X-XXXXXooo44116%%OO>55$$.99&3<wr;*87tq2e00p                                    ",
"                                  f46444ooooXXXXXXXXXXXoo441116%%OOO>5$$..9&3<ww;**87t22e00p                                    ",
"                                  p1%61144ooooooooooooo4441666%%OOOO>5$..9&&3<wr;*87tq2ee@@s                                    ",
"                                  dk%%6611114444444444411616%%%OOOO>>$$.99&3<wr;;*87tq2e0@hd                                    ",
"                                  yk6O%%6611111114111116%66%%%OO>>>>5$.99&3<wrr;*87tq22e0@ay                                    ",
"                                  ic%O%%%%6666616116666%%%%%OOOO>5$$$..9&&3<wr;**77tq2e0@@gu                                    ",
"                                   gOOO%%%%%%%%%6%%%%%%%%%OOOO>>>5$$..9&&3<wr;;*87tq2e0@@0f                                     ",
"                                   pO>>OOO%%%%%%%%%%%%O%OO>>>555$$$..9&&3<wr;;*87tq22e0@@@s                                     ",
"                                   yl5>>>>OOOOOOOOOOOOOOO>555$$$$$..9&&3<ww;;*877t22e0@@@ay                                     ",
"                                   ig>>555>OOOOOOOOOOOOOO>55$.$$..99&33<wwr;**87tq2ee0@@@ji                                     ",
"                                    p95$55>>>>>>>>>>>>>>55$$$$.$99&&33<wwr;**87tq22e0@@@@s                                      ",
"                                    uc5$$$$$5$555555$5$$$$$$...99&&3<<wrr;**87tq22e0@@@@gu                                      ",
"                                     p9$.55$$$$$$$$$$$$$$...999&&33<<wr;;**87tq22e0@@@@@s                                       ",
"                                     uh5.$..$$$$$$$$$.....999&&&33<wwr;;**87ttq2e00@@@@gu                                       ",
"                                      sb99.....$........999&&&33<<wrr;;**87ttq2ee0@@@@@d                                        ",
"                                       g9&&9999999999&9&&&&333<<wwr;;**877tqq2ee0@@@@@fi                                        ",
"                                       uh&&&&&&&&&&&&&&&333<<<wwr;;;**877tq222e0@@@@@gu                                         ",
"                                       idc3333333333333<<<<wwwr;;;***87ttq22ee0@@@@@ad                                          ",
"                                         sl<w<<<<<<<<<w<wwwrrr;;***877tqq22e00@@@@@as                                           ",
"                                          plwwwwwwwwrwwrrr;;;;**8877ttq222e00@@@@@hs                                            ",
"                                           p7rrrrrrr;;;;;;;***8877ttqq22ee0@@@@@@asi                                            ",
"                                            sh;;;;*;;;;****88777ttqq222e00@@@@@@ad                                              ",
"                                             ya*;*****88888777ttqq222ee00@@@@@@jy                                               ",
"                                              ufh888887777tttqqq222ee00@@@@@@apu                                                ",
"                                                yj2777ttttqqq2222ee000@@@@0ajy                                                  ",
"                                                iidjhqqqq22222eee00@@@@0@ajdi                                                   ",
"                                                   iypgh2222eee000000hagpyi                                                     ",
"                                                      iysfjgaaaaaagjfsyi                                                        ",
"                                                          iuuyyyyuui                                                            ",
"                                                                                                                                ",
"                                                                                                                                ",
"                                                                                                                                ",
"                                                                                                                                ",
"                                                                                                                                ",
"                                                                                                                                ",
"                                                                                                                                ",
"                                                                                                                                ",
"                                                                                                                                ",
"                                                                                                                                ",
"                                                                                                                                ",
"                                                                                                                                ",
"                                                                                                                                ",
"                                                                                                                                ",
"                                                                                                                                ",
"                                                                                                                                ",
"                                                                                                                                ",
"                                                                                                                                ",
"                                                                                                                                ",
"                                                                                                                                ",
"                                                                                                                                ",
"                                                                                                                                ",
"                                                                                                                                ",
"                                                                                                                                ",
"                                                                                                                                ",
"                                                                                                                                ",
"                                                                                                                                ",
"                                                                                                                                ",
"                                                                                                                                ",
"                                                                                                                                ",
"                                                                                                                                ",
"                                                                                                                                ",
"                                                                                                                                ",
"                                                                                                                                ",
"                                                                                                                                "
};
