/* XPM */
static char *_6f2eac0eb924a1dc394c8e19f5645e8TYtsxh6k03Tq5TDa[] = {
/* columns rows colors chars-per-pixel */
"128 128 14 1 ",
"  c None",
". c gray2",
"X c #151108",
"o c #1B1609",
"O c #2D220A",
"+ c #31260B",
"@ c #33270D",
"# c #AA8B17",
"$ c #C29A14",
"% c #C99F13",
"& c #CFA315",
"* c #EAB611",
"= c #ECBA10",
"- c #EFBC10",
/* pixels */
"                                           ..                               .                                                   ",
"                                           ...                              .                                                   ",
"                                           ..                               .                                                   ",
"                                           ...                             ..                                                   ",
"                                           ..                              ..                                                   ",
"                                           ..                              .                                                    ",
"                                           ..                                                                                   ",
"                                           .oooooooooooooooooooooooooooooooo..                                                  ",
"                                           o#&&&&&&&&&&&&&&&&&&&&&&&&&&&&&&#o              ..                                   ",
"                                           o%--=-=-=-=-=-=-=-=-=-=-=-=-=-=-%o              ...                                  ",
"                                           o%-============================-%o             ...                                   ",
"                                           o%=============================-%o              ...                                  ",
"                                           o%-============================-%o             ...                                   ",
"                                           o%=============================-%o              ...                                  ",
"                                           o%-============================-%o             ...                                   ",
"                    ........XXXXXXXXXXXXXXXO%-============================-%OXXXXXXXXXXXXXXoX.......                            ",
"                    .......o#$$$$$$$$$$$$$$%*==============================*%$$$$$$$$$$$$$$#o.......                            ",
"                     ..... o&---------------================================---------------%o.......                            ",
"                           o&-============================================================-%o                                   ",
"                           o&=============================================================-%o                                   ",
"                           o&=============================================================-%o                                   ",
"                           o&-============================================================-%o                                   ",
"                           o&-============================================================-%o                                   ",
"            ........ooooooo+&-=============================================================%+ooooooo........                    ",
"           ........o#%%%%%%&===============================================================*%%%%%%%#o.......                    ",
"            .....  X%------=================================================================-------&o.......                    ",
"           .       o%-============================================================================-&o                           ",
"           .       o%=============================================================================-&o.                          ",
"           ..      X%-============================================================================-&o                           ",
"           ..      o%=============================================================================-&o                           ",
"           .       X%-======================================--------==============================-&o                           ",
"    ........oooooooO&======================================*%$$$$$$%*==============================&@ooooooo........            ",
"   .. .....o#%%%%%%&*======================================&OXoXXXXO&==============================*&%%%%%%#X........           ",
"   ...     o%------=======================================-%o      o&-===============================------%X       .           ",
"   ..      o%-============================================-%o      o&-====================================-%X       .           ",
"   ...     o%-============================================-%o      o&=====================================-%X       .           ",
"   ..      o%-============================================-&o      o&-====================================-%X       .           ",
"   ...     o%-=============================================&o      o&=====================================-%X       .           ",
"   ..      o&---------------==============================-%o      o%-====================================-%X       .           ",
"   ..      o#&%%%%%%%%%%%%%&*=============================-&OXXXXXXO&-====================================-%X       .           ",
"           .ooooooooooooooo+&==============================*%%%%%%%%*-====================================-%X       .           ",
"           .               o&-==============================--------======================================-%X       .           ",
"           .               o&-============================================================================-%X       .           ",
"           .               o&=============================================================================-%X       .           ",
"           ..              o&-============================================================================-%X       .           ",
"           ..              o&=============================================================================-%X                   ",
"           ..              o&-----------------------======================================================-%X                   ",
"           ..              o#$$$$$$$$$$$$$$$$$$$$$$%*=====================================================-%Oooooooo.           ",
"                           .XXXXXXXXXXXXXXXXXXXXXXXO%-=====================================================*&&&%&&&#o      ..   ",
"                             . . . . . . . . . .   o%-========================================================--==-%o      ..   ",
"                                                   o%-============================================================-%o      ..   ",
"                                                   o%-============================================================-%o      ..   ",
"                                                   o%-============================================================-%o      ..   ",
"                                                   o%-============================================================-%o      ..   ",
"                                                   o%----------------------=======================================-%o      ..   ",
"                                                   o#%%%%%%%%%%%%%%%%%%%%%%%*=====================================-%o      ..   ",
"                                                   .XooooooooooooooooooooooO%-====================================-%o      ..   ",
"                                                                           o$-====================================-%o      ..   ",
"                                                                           o$-====================================-%o      ..   ",
"                                                                           o$-====================================-%o      ..   ",
"                                                                           o$-====================================-%o      ..   ",
"                                                   .                       o$-====================================-%o      ..   ",
"                                                   .                       X$-====================================-%o      ..   ",
"                                                   .       .XooooooooooooooO%-====================================-%o      ..   ",
"                                                   ..      X#%%$$$$$$$$$$$$%*=====================================-%o      ..   ",
"                                                   ..      X$---------------======================================-%o      ..   ",
"                                                   ..      X$-====================================================-%o      ..   ",
"                                                   .       X$-====================================================-%o      ..   ",
"                                                   .       X$-====================================================-%o      ..   ",
"                                                           X$-====================================================-%o      ..   ",
"                                                           X$-====================================================-%o      ..   ",
"                             ......  ............. .oooooooO%-====================================================-%o      ..   ",
"                            .....       ...........o#%%%%%$%*=====================================================-%o      ..   ",
"                                                   o%--=-=--======================================================-%o      ..   ",
"                                                   o%-============================================================-%o      ..   ",
"                                                   o%-============================================================-%o      ..   ",
"                                                   o%-============================================================-%o      ..   ",
"                                                   o%-============================================================-%o      ..   ",
"                                                   o%-======================================================-----=-%o      ..   ",
"                           .XXXXXXXXXXXXXXXXXXXXXXXO%-=====================================================*&&&&&&&#o      ..   ",
"                           o#%$$$$$$$$$$$$$$$$$$$$$%*=====================================================-%Oooooooo.           ",
"                           o&-----------------------======================================================-%X       .           ",
"           ..              o&-============================================================================-%X                   ",
"           ..              o&=============================================================================-%X                   ",
"           ..              o&-============================================================================-%X       .           ",
"           ..              o&=============================================================================-%X       .           ",
"           ..              o&-============================================================================-%X       .           ",
"           .ooooooooooooooo@&-============================================================================-%X       .           ",
"   ..      o#&%%%%%%%%%%%%%&==============================================================================-%X       .           ",
"   ..      o&---------------==============================================================================-%X       .           ",
"   ..      o%-============================================================================================-%X       .           ",
"   ...     o%-============================================================================================-%X       .           ",
"   ..      o%-============================================================================================-%X       .           ",
"   ...     o%-============================================================================================-%X                   ",
"   ..      o%----=--=================================================================================------%X                   ",
"   ..      o#%%%%%%%*==============================================================================*&%%%%%%#X                   ",
"           .oooooooO&-=============================================================================&@ooooooo.                   ",
"           .       X$-============================================================================-&o                           ",
"                   X%-============================================================================-&o                           ",
"                   o%=============================================================================-&o                           ",
"                   o%-============================================================================-&o                           ",
"           .       o%=============================================================================-&o.                          ",
"           .       o%-------=================================================================------&o                           ",
"            .......o#%%%%%%&*==============================================================*%%%%%%%#o.......                    ",
"            ........ooooooo+&-============================================================-%+ooooooo........                    ",
"                           o&=============================================================-%o        .                          ",
"                           o&-============================================================-%o                                   ",
"                           o&-============================================================-%o                                   ",
"                           o&=============================================================-%o                                   ",
"                           o&-============================================================-%o                                   ",
"                           o&---------------================================---------------%o                                   ",
"                    .......o#$$$$$$$$$$$$$$$*==============================*$$$$$$$$$$$$$$$#o.......                            ",
"                    ........XXXXXXXXXXXXXXXO%-============================-&OXXXXXXXXXXXXXXo........                            ",
"                        . .                o%-============================-%o              ...                                  ",
"                                           o%-============================-%o             ...                                   ",
"                                           o%-============================-%o              ...                                  ",
"                                           o%-============================-%o             ...                                   ",
"                                           o%=============================-%o              ...                                  ",
"                                           o%------------------------------%o             ...                                   ",
"                                           o#&&&&&&&&&&&&&&&&&&&&&&&&&&&&&&#o              ...                                  ",
"                                           .oooooooooooooooooooooooooooooooo.              ..                                   ",
"                                           ...                              .                                                   ",
"                                           ..                              ..                                                   ",
"                                           ..                               .                                                   ",
"                                           ..                                                                                   ",
"                                           ..                                                                                   ",
"                                           ..                                                                                   ",
"                                           ..                                                                                   "
};
