/* XPM */
static char *b442739070574c3ec6e021f5b9a5b246rT8bVengJv6gZNvB[] = {
/* columns rows colors chars-per-pixel */
"128 128 15 1 ",
"  c #493E36",
". c #706058",
"X c black",
"o c #7D7166",
"O c #2C2520",
"+ c #362E28",
"@ c #3F3730",
"# c #211C18",
"$ c #4F443C",
"% c #65574F",
"& c #76685E",
"* c #6B5D54",
"= c #5D5149",
"- c #564A42",
"; c #13100E",
/* pixels */
"XXXXXXXXXXXXXXXXXXXXXXXXXXXXXXXXXXXXXXXXXXXXXXXXXXXXXXXXXXXXXXXXXXXXXXXXXXXXXXXXXXXXXXXXXXXXXXXXXXXXXXXXXXXXXXXXXXXXXXXXXXXXXXXX",
"XXXXXXXXXXXXXXXXXXXXXXXXXXXXXXXXXXXXXXXXXXXXXXXXXXXXXXXXXXXXXXXXXXXXXXXXXXXXXXXXXXXXXXXXXXXXXXXXXXXXXXXXXXXXXXXXXXXXXXXXXXXXXXXX",
"XXXXXXXXXXXXXXXXXXXXXXXXXXXXXXXXXXXXXXXXXXXXXXXXXXXXXXXXXXXXXXXXXXXXXXXXXXXXXXXXXXXXXXXXXXXXXXXXXXXXXXXXXXXXXXXXXXXXXXXXXXXXXXXX",
"XXXXXXXXXXXXXXXXXXXXXXXXXXXXXXXXXXXXXXXXXXXXXXXXXXXXXXXXXXXXXXXXXXXXXXXXXXXXXXXXXXXXXXXXXXXXXXXXXXXXXXXXXXXXXXXXXXXXXXXXXXXXXXXX",
"XXXXXXXXXXXXXXXXXXXXXXXXXXXXXXXXXXXXXXXXXXXXXXXXXXXXXXXXXXXXXXXXXXXXXXXXXXXXXXXXXXXXXXXXXXXXXXXXXXXXXXXXXXXXXXXXXXXXXXXXXXXXXXXX",
"XXXXXXXXXXXXXXXXXXXXXXXXXXXXXXXXXXXXXXXXXXXXXXXXXXXXXXXXXXXXXXXXXXXXXXXXXXXXXXXXXXXXXXXXXXXXXXXXXXXXXXXXXXXXXXXXXXXXXXXXXXXXXXXX",
"XXXXXXXXXXXXXXXXXXXXXXXXXXXXXXXXXXXXXXXXXXXXXXXXXXXXXXXXXXXXXXXXXXXXXXXXXXXXXXXXXXXXXXXXXXXXXXXXXXXXXXXXXXXXXXXXXXXXXXXXXXXXXXXX",
"XXXXXXXXXXXXXXX;#O###;;;###;XXXXX;##O+OOOOO#XXXX#OOOOOOO##;;;;;;X;;XXX;;;;;;X;X;;;XXXXXXXX;X;;;####;;;;;###OOO####;XXXXXXXXXXXXX",
"XXXXXXXXX#O#;X;#=..*%%%%**%= #;# %.&..*****=OXX;$.&&&&&&&&.*= O#O#;#O@-%%$+O###@= #XX;##;;#+$=**.&...*% OO %*%%-@OO+#;XXXXXXXXXX",
"XXXXXXXX;$%% #;@&.&*=-=%*.... #%o&.......*..=#X#.ooo&%*.......-#O#@%.&oo&=     =.. ;;O+OO-.ooooooooooooo.$O+@+O+ =&o.$#XXXXXXXXX",
"XXXXXXXX;$.&&-#O*.&&$   $*..%@=o&.......%-*..@;@&&&&$ -*......*+# ..&oooo&$   $%..-#OO+-.oo&.&&&&%--===*&o.$@O *&&.&oo-O;XXXXXXX",
"XXXXXXXXX+&ooo$;$.oo-  $=*.%@=o&.......*$ =.*OO..&o*   $-%*....=#@*.&oooo&=$$-%*%$O#O@%&&.=$ =..*%=-$   -.oo.-+ -====%$@;XXXXXXX",
"XXXXXXXXXO&*=%-O+.&o%$=&o..@-&..***...%-  -* +%.&o.$      $*o&..$# =.&ooo..**.%@OO %&o&.%$  $%......*%-  $%&*-=+O     @#XXXXXXXX",
"XXXXXXXXX#=$  @#-.&oo&oo&.*+*o.*-$-=%=$   -$+%..&=$       $.oo...$+ =.&o&....=O#+-..&&.*$   =......&&..=   -$ %%+O   @#;XXXXXXXX",
"XXXXXXXXX;@   #@...&oo&....@=&%$    $     $O=..%$        -*&oo&..%O@ %.&....*@O $%......=$ $*......oooo&%-    =.%OO  O+@XXXXXXXX",
"XXXXXXXXX;+ @OO-%..........$@-            ++*.%$        $%.oooo&.*O+ -%*..*%$+  -*.......*==.......&oooo.*=-=%*.*$#@OO$-;XXXXXXX",
"XXXXXXXXXX;#;;@  -*.....*%==++            # ..- --$      -.oooo&..+O  $-==$ O@  -................*%*.&oo.......*-@O+O  -#XXXXXXX",
"XXXXXXXXXXO ##    $=*..*=$  @#@     @@+@@@#O%.=$%*%%=-$$$-&oooo&.. #       @#   =.%%**........*%=$ -%.........%- O##@ @ #XXXXXXX",
"XXXXXXXXX#=.$#@     $-=$     #O   +OO+OOOO++@**%......**%*&oooo&..%OO     @+#   =%-%=$=%*...*=-$    $=*....*%=$ +;;;O+O+;XXXXXXX",
"XXXXXXXXX+.&&@O              O# @O+-%%%*%**%O-.............&oo&....-;;OO##;;#    -*.%-$$-=%=$    $$   -%*%=-$  +#O+ -&%#;XXXXXXX",
"XXXXXXXXX .&&=+O             +;++-*.&o&&....$O%............**%=%..* ;;O+ $$O#    %.%*.*-       -%*=     $     +O =.&ooo@;XXXXXXX",
"XXXXXXXXX .&&-=O+            @;+%...&ooo....%O %...*...**%=-$  $%%-@; *.&&. #+@  =%$=..=    $-%*..%          +#@ -*..oo*#XXXXXXX",
"XXXXXXXXX$.&&$==O@           OO%....&ooo&....+@$%*..*%=-$        $ #;-.&oo. +#;#O@$  -*%    -*...%$         +;+   $=%&ooOXXXXXXX",
"XXXXXXXXX .&&$$*$O          +; .....oooo&....$+ $-==-         @   O;;@=&oo*   @+#;#+@ --    $*..%$        @#;;+     $=&oOXXXXXXX",
"XXXXXXXXX+.&&$$**@O       +#;#$.....oooo&....%O+            @O##O#;#;@$.oo*      @#;#@      $%.*-      @+OO@$@#       =.OXXXXXXX",
"XXXXXXXXX;%..==.&*@O    @OO+$O ....&oooo&....* O#@        @##O@+;;O##  %oo&=--===- @+OO@     %.=     @OO@=.oo&++      $=#XXXXXXX",
"XXXXXXXXXX ....&o&%+OOO## - $+ .....&&&&.....%$ O#O+    @O;# %&=#@%+ $ -&o&....*.*$ $ ##+    =%$   @O;+.oo&ooo.O+       ;XXXXXXX",
"XXXXXXXXXXO=...&oo&*-@#;@o=    .......*%%%%%%-   @#;##O#;;O=.oo%#$%+%= $*&&......*--% #+OO+@@  @@+O;##=o&=$.ooo-#+     OXXXXXXXX",
"XXXXXXXXX;+$=..&ooo..%O#%o= =-@*.....*-$ $$     +#O$ +++ -*&o&.@O*=O*.=-*.......%=$- #+--@OOO##+ -= ##.o=  %&&.=#;+   @;XXXXXXXX",
"XXXXXXXXX;+  -*..&&...$#%o**&*+$%...*-       @O##@*ooo&&ooo&&.%#$.=O*..*.....*%-$ @O# %.&&%-@;$=%... +&&%$-*.*= O;;O+@OXXXXXXXXX",
"XXXXXXXXX#@   $=*..**.*+-oooo.@O$=**-       @#O+-&ooo&.&&..... +*.=#$*......*-  @O#O-.&oooo&=+% =... @*..*..*-  +#+OO#;XXXXXXXXX",
"XXXXXXXXXO      $==-$=.$@.&oo.=O+ $$        OO -&oo&&........-+%&o*#@-*....*%   OO@ %.ooooo&=@*%*..*++$*...%$  @O-***=OXXXXXXXXX",
"XXXXXXXXX;           $*=+*.&&*-@#+          #+ $=%........*.=O-&oo&O+ $%...*$  +;   =.&&&*=-@@*.....$#+-=%=$   + .....=#XXXXXXXX",
"XXXXXXXXX;+           --O-%**-  #;+         ;#    -%...*%=-$O &ooo& #  $=%=-  +;;O@  -=--$  O+-==%%-$+#+ $    ++$=*.... XXXXXXXX",
"XXXXXXXXXXO@           @# $--   +;;#O+@    @;;@    $==-$  @# .oooo.%O@      @#;O$= @       @#+        @#+    @O   $=%=%=;XXXXXXX",
"XXXXXXXXXX#++@         O;       O;O+O####OO#;#+          @#O$*&ooo..@O      #O-*.&*@+   @+O+@O        +##+  @O@    $$$$-#XXXXXXX",
"XXXXXXXXX; * O         #;@      OO    @@+++++##O@       @#O  =.&&&..%O+    O#%..&oo ##+++ %..@O      +#O#;O+#O    =*%%= #XXXXXXX",
"XXXXXXXXX;$*-#+       +;;O     @O -$    $$-$@###OO@     #O   $%....**-+OO+O#O@@@=&o=+#@=*&oo&*+@    ++-%= ++OO+@ $%...% #XXXXXXX",
"XXXXXXXXX#$$ O#      +;O+#O@@@+O@-..*%%*.&&&-;O =$O+   O;@    $%%=-$$  @#+@ @@+OO@ ++ .ooooooo%+@ @O@%&&...**%$OO $=*%-+;XXXXXXX",
"XXXXXXXXXO   +;+@@@+O#+  +;##O+ =&ooooooooo.@O =&&%+O++###+            @#@       +O+$.ooooooo&. #OO$*&oooooo&&&%+O@ -$+;XXXXXXXX",
"XXXXXXXXXO  @#;####O+  $$@;O@ -%&oo&&&&&..*$@ -ooo.*---=%-+O@           #O          %oooo&&.=-$-O+%...&&oooooooo.$O+@+;XXXXXXXXX",
"XXXXXXXXXXO#;+@@@@  $-%*-+#  -*ooo&......%@+  %ooo........*+#+          +;#+        =...*$$$    +=.*%%%*.&ooooooo&%-O;XXXXXXXXXX",
"XXXXXXXXXXX;+-===-==*...=O@ $*ooo&......-O#O@ *oo&*....*===+;;+       @O#+ #O+++###+$%.*=       +=%-$  $-=%*&&ooo&..$;XXXXXXXXXX",
"XXXXXXXXXX;O-*..&&&..... O  -.o&....%%* #+ @OO@- +O+ $@####O@OO+++++OO+@-oo=+OOO+$@O$%%-        +@$         -=**....=OXXXXXXXXXX",
"XXXXXXXXXX; $-&&&&&%*... O  $=%**%=-$ +#+    +O####OOOOO@     @+++++O+*.oo&*- $%.$@+%%$         +@            $$$-=-$ OXXXXXXXXX",
"XXXXXXXXX;; *&ooo&*-=%*.%O@   $-$$  @##@$==$  @O;;@-===%..=      $-%$@.&oo&*-$%.. ;#%%$$        O@   +++++@@@       @O#XXXXXXXXX",
"XXXXXXXXX#+=ooooo&= $$-*.@O      @+O#O =*..%- +#+#@%&ooooo*- $-==%..=O-.&&..%%...*@#%**%$       O@@OOO+@@O;####OO+@O#@+XXXXXXXXX",
"XXXXXXXXX-*&ooooo*$    =.=#+   @O##+ %.&&o&.*@+=*O@%oooooo.%%*.......@#%.**.....*=+#*..*$      @#O#O@-%..=O@@@+OO##+=.$;XXXXXXXX",
"XXXXXXXX;=.oooooo=     -**+;#++##O#=.&oooo.. #$.*@@%&ooooo&...&&&&&..=#@-$$*...%- #@.&&.%=$    @;+ -*..&&*+@       %..%#XXXXXXXX",
"XXXXXXXX;$.&oooo&-      %.-#O#OO+O#=.oooo..%O@-..++-.&oooo&.&ooooooo..++   %*%-$ OO*&oo&..*%=--@O-=*..&oo. O$    -%.&o.OXXXXXXXX",
"XXXXXXXXXO=.&oo&%$      =.%O+    @O .&oo..*+O $*.@+$%.&ooo&ooooooooo..@O   $-  @O;@.oooo......*@ ..&ooooo.-O%=$$-.oooo&@XXXXXXXX",
"XXXXXXXXXX+=*.&*-       -*.@O     +O%&o... O   %.-+ -*.&&.&ooooooooo..-#@     @O+O$*oooo.....%-#$.oooooo&%+ .&.*.oooo&*OXXXXXXXX",
"XXXXXXXXX;; $=*=        $*.=#@ $$$@# ...* ##   =.%O@ =.....&&&ooooo&..-;O   @O+= +$%.&&&...*=$+#-&oooooo.@@*&oooooo&.. XXXXXXXXX",
"XXXXXXXXXX;+  $         =..*O+ =*%-@#+--@OOO   =..@#  =****%%=%*...... ;#O+O#@%. @ -%***%%=$ +;+-.&&&&&.-+%..&&ooo&.. ;XXXXXXXXX",
"XXXXXXXXX;X#           =*..%O+ %..*-@#;;O +#   -..%#+  $-$$    $-=%%*.+###O+-... +   $$$$   O;#+$*..*%-$O@-*......*%=OXXXXXXXXXX",
"XXXXXXXX;@;;O          -=%%$#+$%o&.%$@;#$=$#@  -...$#@              $%@##O*&oo&.=+        @#;##+ =%=$   ;+ $=*..*%-  +XXXXXXXXXX",
"XXXXXXXX;=$+;+           $ O# $*oo..- # &o.O+  -...%+O               $=O;@&ooo&.*++     @O;#O=++ $$    O;#   -=%-     #XXXXXXXXX",
"XXXXXXXX;=.* #+          @##@ -&oo&.%+@&oo&$O  $==-$ #O               $OO%.oo&.*=+O    @#;O# .@@    ++++@O+          @OXXXXXXXXX",
"XXXXXXXX;-...-O+        +#O@$=&ooo..-+.oooo%#O       +;+               O-..&&..= +O   @#++;+*. +  +O@-=*.=O@       @++O;XXXXXXXX",
"XXXXXXXXX$....%OO     @O#+ -*oooo&.-+%oooo&*##+      $+;O              O=.....*- +#++#;@*=O=..-O@++=*..&&.@O     @O@-*%+XXXXXXXX",
"XXXXXXXXX+..**.%+#   O#O@$%..oooo&$+=oooo&.*O#O+      +;;#+            O=**%%=-   O#O#O*.-+*..%##$*&&oooo&$#O@  OO$*...*OXXXXXXX",
"XXXXXXXXX#=%$-== ;####+  $%%*.&&.$+=.ooo&..*OO+#+@   +O###;O@@@@@@@@@++# $$         +#-..-+%.*$#$.&oooooo.$##;#O+=.....*#XXXXXXX",
"XXXXXXXXX;$%     O;;+       $-%.=+=..oo&*--*O##;;;#O#+%% ##;;#O######;;;           OO-.&o-O-*=@O*..ooooo&. #O$=%&&o&... XXXXXXXX",
"XXXXXXXXXXO$    @#OO+@        $=@ ...&.%-  =O#+@@+++ -*..=O;   @@@@@@@O;@         O#=&ooo=O -$+@...&o&&..*+ *oooooo&..=#XXXXXXXX",
"XXXXXXXXXXXO   +OO  +O+@        O+%..*=$    O@    $-%.....%O==         OO+       +#=&ooo&%O@  O-.........$@*&ooooo&..*@;XXXXXXXX",
"XXXXXXXXXXX;++OO@     +O+@      O+ -%-    @O@   $-%..&o&...+@*%-$     $%$O+     +;@&oooo&*++ @O-%*%%====-O=&ooooo&*%-+##XXXXXXXX",
"XXXXXXXXXXX;##+  $$    @+O+     O+       @#+    $*..&oooo&.=O-...%====%..%@#@ @+OO+.oooo&. O +O  $ $    O@*&oooo.=$@OO@ ;XXXXXXX",
"XXXXXXXXXXX#+   -%*=$    @+O+@  O#@   @@+#O-=   $*.&ooooo&.. @.&o&.........@#OO@=%# *&ooo&%O@O+        @#=.&oo&*- OO+$%%#XXXXXXX",
"XXXXXXXXX;#+  -%&...*=$    @+OO#OO#++O###O$%%   $%.oooooo&..=@&oooo&.*%*...-#@%..%O@ %.&oo&$O#@        O+*...*=$@OO -*&&+XXXXXXX",
"XXXXXXXXX+@ -%.oooo...*%-$   @@-%$+OO@O##+-**$   %.oooooo...=$&oooo&*$ $%..=+*.&&-+ $%.&oo&.$#+       @#@-%*%- @O+$=.ooo+XXXXXXX",
"XXXXXXXX;@-%.&ooooo&.....*%=@@%&&&%=%.=##@=.*$   =..&oooo...= ..&&o&%    =*-@....@@$-..ooooo&=OO@     +O   $$ +O+$%.&oo&@XXXXXXX",
"XXXXXXXX;@%.&ooooo&........- %&ooo&....@# %.*$   =....&&o...%+-%*..*-     -@$..*%+ $-..&oooooo% ++  @+#+     +#@ =...&&.@XXXXXXX",
"XXXXXXXXX+-=&ooooo&.**....%@-.ooo&.*...$O %.*$   -..........=O  =.*=      @+==-$ O  $=*..&&ooo&.%$+OO++++@@O#;+  =...... XXXXXXX",
"XXXXXXXXX;@ *ooooo&*-$%**%@@ %ooo&*%%..=O@-%%$    %.*.......=#@  --       O =   @#@   $-=%*..&...*O@*&&*-@##O#+  -==%*..@XXXXXXX",
"XXXXXXXXXXX# .&&&&.=  $-$+#  -*&*=$ -...$#+ $      -*.%=%...=;#@        @#O=%    #+       $-%*...-O*oo&..*%$O##      $%.@XXXXXXX",
"XXXXXXXXXXX;#-*..*=     +##   $-$   =....=##@       $-$ $=*. ;##@      +#;@ $   @;#          $--=+-.&&......-#;@      -*OXXXXXXX",
"XXXXXXXXXX;+O@$=*=     O;##@        =.....=O#@            - O@ O#+@ @+##O#     @#;#+            @+*.*=-=%%=$ +;OO++@  $$;XXXXXXX",
"XXXXXXXXXX; +O  $$   @O;;#OO@       =%====%-##+@        @OOO@   +###O;O###+  @O#;O@#@           +@.%$      @+O+$==- +@ OXXXXXXXX",
"XXXXXXXXX;@ $++   @+O+ #O  +O@       $   @+O#;O###OO+OOO#O@       @@@;;@%$#OO#O+#@%@OO+         +@-$    @+++$*&oo&..-+@#XXXXXXXX",
"XXXXXXXXX;  %=@++O+@=&& O  -@O@       @+###O+@ $$$O;O++@            @;O%.% ++@ =$+*= +#O+@@@+O##;+    @++@=&ooooo&... +;XXXXXXXX",
"XXXXXXXXX;+ -**%=%*oooo%O@-%*$OO@@@@+O#;O@     %.*++                @#=...%=--=.%+**-  @+OOO+O+@OO@@+O+$%.oooooo&.*%%=+XXXXXXXXX",
"XXXXXXXXXX#  $*...ooooo&@@  =.% O####++O     $%o&-O            -=$  +#%...&&&&o.*+-.*-          @##O@-%...*....%=-$  $@;XXXXXXXX",
"XXXXXXXXXX;+  -.ooooooo&-@  %oo&*%=$  ++    $%&oo=#@    $-====%*.-  @O$%.&oo.=%..+ &.*-  $===--$@@@  $$$$-$$$$$$     @+;XXXXXXXX",
"XXXXXXXXXXX#   -.&ooooo&$+ =oooo...*=$+@   -*.&oo.O+  $=*...&&ooo%$  + %.&ooo&..*+%o&.*%=*..&&*%+@                  +#XXXXXXXXXX",
"XXXXXXXXXX##+   -*&&&&.%++$.oooo&....%++  =*...oo&$#@ -.&&ooooooo&*%-+ $-%&&....-@ooo.....&oo&.*+++OO@         @@@+OOO;XXXXXXXXX",
"XXXXXXXXX;+O#    -*.%-$+# $.&ooo&.*%.*@+ $*.&&.&o&.@O $.ooooooooo&.. @   $-=%%%%@%ooo....&ooo&.%#+--+#O+++++O##OO+@-*% #XXXXXXXX",
"XXXXXXXXXO@+;+    $=$ @;@  =.&.*%-$$=. + -..oo..&..%O@$*.&oooo&&....@@         @ ooo&...&oooo..-#-..%-@+O+##+@@ $=**%** XXXXXXXX",
"XXXXXXXXXO@O##+      @#X@   ---$     -@O $*.&o..***.-O *...&&......*@+        @O*ooo&....&oo&.. # =*..*%%%$#O@    $$ -$#XXXXXXXX",
"XXXXXXXXX#+;++#+     O++O@           @#+ =...&..%$-*.$@*%$++ %**..%$O#        #@&ooo..%%*.&o&..+O  -*.....$O +OOO#O  +#;XXXXXXXX",
"XXXXXXXXX;#O  $+@   ++*&-O@       @+O#;+$%....%*=  $*. O##O+OO@$-- +#;+    @+#O$*&&.*= -*....*%O+   $%...%O$..%==-+OO#+O;XXXXXXX",
"XXXXXXXXX;#@ =.* @ ++.oo& +     @++OO#;+ =*..=$$-   -*=#+ $$ @#O@+#;##;OO##OO#@ =*.*-  $*..*=$+##@    =**@@*.oooo&*-OO++;XXXXXXX",
"XXXXXXXXXXO $*oo.@+#$oooo*+@  @++ $$ +;O  -%*$       -%+ ***- @##@$=%% OOO+@ O@  =%$   $=*=$ O#O#;#@   $$O=..ooooo.. O+O;XXXXXXX",
"XXXXXXXXXXO  -&oo=@ $oooo&@;###$%***== #+  $-         -+ ...%  O$..&&.%-$ $$- O   $     $$ @#;##OOO#OOO#;#$*.&ooo&..%+O#XXXXXXXX",
"XXXXXXXXXX#   -&oo.%@%ooo&=#;O=........ O@            @O=o&.*-@#-.&o&..*%%%*.%O+          O#O@$%*=$ @+@+OO %..&&.....$#XXXXXXXXX",
"XXXXXXXXXXX+   -.&..$@.&&%=O+%....&&....$+          @O+%oo&..=O;+$%...........$O        @O@=.&o&&&.=---==+@$=%%*..%-$$#XXXXXXXXX",
"XXXXXXXXXXX#@   -*..%@%*=$@@*....&ooo....$+        +O$*ooo..*@@-OO@-%.......&.*++      ++=..&oooooo..*...@+   $$--$  +;XXXXXXXXX",
"XXXXXXXXXX+ O@   =..*@%%  @@....&ooooo&..*@+     @O+=.&ooo.%@ *- @O+$=*....oo&.%@+   @+#=...&oooooo&.....%O+      @+O#;XXXXXXXXX",
"XXXXXXXXX;=o-O+  =..%@%*-$$@%...&ooooooo..=O+@@+##;@$%.&&.%@ *=  $-++ -%..&oooo&%O#++;;#-%...&&ooo&&......-O@    +O+@@;XXXXXXXXX",
"XXXXXXXXX#=&* +  %..$+%..**  *...&&ooooo..=#;##;;##   -=%- O%%$   $=+@ $*.&oooo&.@;#O#OO+$-%...&&.......*..+#+ @OO@ $=+XXXXXXXXX",
"XXXXXXXXXO$-$@+ $%.%O %....=O$-=%..&oo&...$#@@+ +;#       @+%%     --O@ -*.&ooo&.@#+#O @O@ $-=*......**....$O+OO+  $%. XXXXXXXXX",
"XXXXXXXXX+   ++ $*. O -%%%**##@ $=%......=O+  -.* #@       @-%      = O  =..&oo..+OO+ $ O+    $=%..*%--*..*$O     $%..=;XXXXXXXX",
"XXXXXXXXX;   #+  =*OO    $$$#;#@  $$-=%*=@#$=-=...=O@      @-*$     -%+@ $%...*%-OO $%*=@#+     $-=$   -*%-+O -==%%&o.%#XXXXXXXX",
"XXXXXXXXXX+ @;@   @;;+@    O+= O@     $$ ++=.**..&.-#@     @-.-     $* +  $%=-$ OO-**oo.-+#@            $$@#+-*....&o.%#XXXXXXXX",
"XXXXXXXXXX;@#;O +OO@  @+@ @#=**$O@       O@*.....o&=##+   @O$**=    -*-O     @+O#@-%.&o&*-O;@             #O$%...&&o&.=#XXXXXXXX",
"XXXXXXXXXXX#+@+  =....*= +#+%$-*O;O@    @#$*.%%..&.@@%$@+++#@-*.%=---- ##O++O##OO@ $%&&&..$;#@           O# %.&ooooo..$#;XXXXXXX",
"XXXXXXXXXX;+  =*&oo.=-=*.-#--  =+++O@  @##=.%$$*..=+%&.%=-=@+ =**%=$  O++O##O@ $ @  $*....-+ #+         O# %.&ooooo&..@+;XXXXXXX",
"XXXXXXXXX#@  $*&oo.-   =.*++    =&. OOO##O*.=  %..$ &o&....$O  $$    ++$      -*-O   %....$ .-O#O+@    O#$*.&oooooo&.%O@#XXXXXXX",
"XXXXXXXXX+   -*&&.%$$  $*.-O  @-&o&.= O#O#%.=  =..@-&oo.*..%O@       O$=    $%..-O   %*%%=+=.&&=@##O@@#O=...&ooooo&*-++ OXXXXXXX",
"XXXXXXXXX@   -.....****%*.*+@ +%oooo&.%$+;-.%$ %.*+=.&.=$-*. O      +@**$  $*oo. O  $-$  +#=*.&o&%$O;;#+%*...&oooo.-#O  OXXXXXXX",
"XXXXXXXXX+   -*.....&oooo.. ++O*.&oo&...*@+.*- %.*O=*%$   $%%OO    OO=..=$-*ooo.++      @#+ $-%**..%$+O#@-%....oo&. #@  #XXXXXXX",
"XXXXXXXXX+    $=%..&ooooo&.-O#@-*........%@%.- -*%O--      $%=+++O;#@=..*%*&ooo*O@      ##     $$-%*.=O#O $=***.&.% #@ OXXXXXXXX",
"XXXXXXXXXO      $-%.&oooo..=#@  -*.....*==+-.=  =-#@        $-$#O+## $%**..ooo&=O      +#@         $-%$;+   $$$--=- #+@;XXXXXXXX",
"XXXXXXXXX;@        -%.&&..*+;@   $%*.*=$  #@==   @#@          @O  @#   $$-=.&..=O@     #+            -%O+           +#OXXXXXXXXX",
"XXXXXXXXXX;+         =*%=-O;O++@   -=$   O;+$$   @;#@        @O+   #@      $$$$-+O    +#@             = O           @#;XXXXXXXXX",
"XXXXXXXXXXXXO@      $-$ +#O@  @O@       +;X+     OXX;+       +@%-$ O+            ++  @#;#@             @O            O;XXXXXXXXX",
"XXXXXXXXXXXXX;O        +#+     +;+     @;XX;+    #XXX;+     ++=..= +@            @#@ OXXX#@           +##+           @#XXXXXXXXX",
"XXXXXXXXXXXXXX#@      +;X+$$ $ O;;O    #XXXX;#+++;XXXX;+   +O@ ==$ O+   @       @#;#+;XXXX;O+@@  @@+O#;XX#O@          #XXXXXXXXX",
"XXXXXXXXXXXXXX;O     +;XX; %%=+;XX;+ @O;XXXXXX;;XXXXXXX;+@O;;;#@@+#;O@+O#O+@   @#XXX;XXXXXXX;;;;;;;;XXXXXX;;O+@@ @@@@+;XXXXXXXXX",
"XXXXXXXXXXXXXXX;;#OO;;XXXX;+@#XXXXXX#;XXXXXXXXXXXXXXXXXX;;XXXXXX;;XXX;;XXX;;###;XXXXXXXXXXXXXXXXXXXXXXXXXXXXXX;;;#;;;XXXXXXXXXXX",
"XXXXXXXXXXXXXXXXXXXXXXXXXXXXXXXXXXXXXXXXXXXXXXXXXXXXXXXXXXXXXXXXXXXXXXXXXXXXXXXXXXXXXXXXXXXXXXXXXXXXXXXXXXXXXXXXXXXXXXXXXXXXXXXX",
"XXXXXXXXXXXXXXXXXXXXXXXXXXXXXXXXXXXXXXXXXXXXXXXXXXXXXXXXXXXXXXXXXXXXXXXXXXXXXXXXXXXXXXXXXXXXXXXXXXXXXXXXXXXXXXXXXXXXXXXXXXXXXXXX",
"XXXXXXXXXXXXXXXXXXXXXXXXXXXXXXXXXXXXXXXXXXXXXXXXXXXXXXXXXXXXXXXXXXXXXXXXXXXXXXXXXXXXXXXXXXXXXXXXXXXXXXXXXXXXXXXXXXXXXXXXXXXXXXXX",
"XXXXXXXXXXXXXXXXXXXXXXXXXXXXXXXXXXXXXXXXXXXXXXXXXXXXXXXXXXXXXXXXXXXXXXXXXXXXXXXXXXXXXXXXXXXXXXXXXXXXXXXXXXXXXXXXXXXXXXXXXXXXXXXX",
"XXXXXXXXXXXXXXXXXXXXXXXXXXXXXXXXXXXXXXXXXXXXXXXXXXXXXXXXXXXXXXXXXXXXXXXXXXXXXXXXXXXXXXXXXXXXXXXXXXXXXXXXXXXXXXXXXXXXXXXXXXXXXXXX",
"XXXXXXXXXXXXXXXXXXXXXXXXXXXXXXXXXXXXXXXXXXXXXXXXXXXXXXXXXXXXXXXXXXXXXXXXXXXXXXXXXXXXXXXXXXXXXXXXXXXXXXXXXXXXXXXXXXXXXXXXXXXXXXXX",
"XXXXXXXXXXXXXXXXXXXXXXXXXXXXXXXXXXXXXXXXXXXXXXXXXXXXXXXXXXXXXXXXXXXXXXXXXXXXXXXXXXXXXXXXXXXXXXXXXXXXXXXXXXXXXXXXXXXXXXXXXXXXXXXX",
"XXXXXXXXXXXXXXXXXXXXXXXXXXXXXXXXXXXXXXXXXXXXXXXXXXXXXXXXXXXXXXXXXXXXXXXXXXXXXXXXXXXXXXXXXXXXXXXXXXXXXXXXXXXXXXXXXXXXXXXXXXXXXXXX",
"XXXXXXXXXXXXXXXXXXXXXXXXXXXXXXXXXXXXXXXXXXXXXXXXXXXXXXXXXXXXXXXXXXXXXXXXXXXXXXXXXXXXXXXXXXXXXXXXXXXXXXXXXXXXXXXXXXXXXXXXXXXXXXXX"
};
